<svg width="1440" height="506" viewBox="0 0 1440 506" fill="none" xmlns="http://www.w3.org/2000/svg">
<path d="M617.472 86.3021H668.36C677.443 86.3021 685.657 87.7843 693.003 90.7486C700.483 93.7129 706.827 98.1594 712.036 104.088C717.379 109.882 721.453 117.225 724.257 126.118C727.196 134.877 728.665 145.117 728.665 156.839C728.665 168.562 727.196 178.87 724.257 187.763C721.453 196.521 717.379 203.864 712.036 209.793C706.827 215.587 700.483 219.966 693.003 222.93C685.657 225.895 677.443 227.377 668.36 227.377H617.472V86.3021ZM668.36 203.73C678.244 203.73 686.058 200.833 691.801 195.039C697.678 189.11 700.616 180.082 700.616 167.956V145.723C700.616 133.597 697.678 124.636 691.801 118.842C686.058 112.914 678.244 109.949 668.36 109.949H643.918V203.73H668.36Z" fill="white"/>
<path d="M816.508 209.793H815.506C814.571 212.488 813.303 215.048 811.7 217.473C810.231 219.764 808.294 221.852 805.89 223.739C803.619 225.625 800.814 227.107 797.475 228.185C794.27 229.263 790.53 229.802 786.256 229.802C775.437 229.802 767.156 226.232 761.413 219.09C755.669 211.949 752.798 201.776 752.798 188.571V121.874H778.442V185.944C778.442 193.22 779.845 198.812 782.649 202.719C785.454 206.492 789.929 208.378 796.073 208.378C798.61 208.378 801.081 208.041 803.486 207.368C806.023 206.694 808.227 205.683 810.097 204.336C811.967 202.854 813.503 201.102 814.705 199.081C815.907 196.925 816.508 194.432 816.508 191.603V121.874H842.153V227.377H816.508V209.793Z" fill="white"/>
<path d="M871.782 227.377V121.874H897.427V139.458H898.429C900.566 133.799 903.905 129.083 908.446 125.31C913.121 121.402 919.532 119.449 927.679 119.449C938.498 119.449 946.779 123.019 952.522 130.161C958.266 137.302 961.137 147.475 961.137 160.68V227.377H935.493V163.307C935.493 155.762 934.157 150.102 931.486 146.33C928.815 142.557 924.407 140.67 918.263 140.67C915.592 140.67 912.987 141.075 910.449 141.883C908.045 142.557 905.841 143.635 903.838 145.117C901.968 146.464 900.432 148.216 899.23 150.372C898.028 152.393 897.427 154.818 897.427 157.648V227.377H871.782Z" fill="white"/>
<path d="M1031.84 229.802C1024.09 229.802 1017.15 228.522 1011 225.962C1004.99 223.267 999.849 219.562 995.575 214.846C991.435 209.995 988.229 204.201 985.959 197.464C983.688 190.592 982.553 182.912 982.553 174.423C982.553 166.069 983.621 158.524 985.758 151.787C988.029 145.05 991.234 139.323 995.375 134.607C999.516 129.756 1004.59 126.051 1010.6 123.491C1016.61 120.796 1023.42 119.449 1031.04 119.449C1039.18 119.449 1046.26 120.863 1052.27 123.693C1058.28 126.523 1063.23 130.363 1067.1 135.213C1070.97 140.064 1073.84 145.723 1075.71 152.191C1077.72 158.524 1078.72 165.328 1078.72 172.604V181.093H1009.2V183.72C1009.2 191.401 1011.34 197.599 1015.61 202.315C1019.88 206.896 1026.23 209.187 1034.64 209.187C1041.05 209.187 1046.26 207.839 1050.27 205.144C1054.41 202.45 1058.08 199.014 1061.29 194.837L1075.11 210.399C1070.84 216.463 1064.96 221.246 1057.48 224.749C1050.14 228.118 1041.59 229.802 1031.84 229.802ZM1031.44 138.851C1024.63 138.851 1019.22 141.142 1015.21 145.723C1011.2 150.304 1009.2 156.233 1009.2 163.509V165.126H1052.07V163.307C1052.07 156.031 1050.27 150.17 1046.66 145.723C1043.19 141.142 1038.12 138.851 1031.44 138.851Z" fill="white"/>
<path d="M705.625 429.49L693.003 391.29H640.712L628.491 429.49H605.451L653.134 288.415H681.583L729.266 429.49H705.625ZM667.359 309.435H666.357L646.122 371.685H687.393L667.359 309.435Z" fill="white"/>
<path d="M749.323 429.49V324.391H771.161V341.773H772.162C774.433 336.113 777.839 331.398 782.38 327.625C787.055 323.852 793.399 321.966 801.413 321.966C812.098 321.966 820.379 325.536 826.256 332.678C832.267 339.684 835.272 349.722 835.272 362.792V429.49H813.434V365.622C813.434 349.183 806.889 340.964 793.8 340.964C790.995 340.964 788.19 341.368 785.385 342.177C782.714 342.851 780.31 343.929 778.173 345.411C776.036 346.893 774.299 348.779 772.964 351.07C771.762 353.36 771.161 356.055 771.161 359.154V429.49H749.323Z" fill="white"/>
<path d="M941.873 429.49C936.129 429.49 931.722 427.873 928.65 424.639C925.578 421.27 923.708 417.026 923.04 411.906H922.038C920.035 418.508 916.362 423.494 911.019 426.862C905.677 430.231 899.199 431.915 891.585 431.915C880.767 431.915 872.419 429.085 866.542 423.426C860.799 417.767 857.927 410.154 857.927 400.587C857.927 390.078 861.667 382.195 869.146 376.94C876.76 371.685 887.846 369.058 902.404 369.058H921.237V360.165C921.237 353.697 919.501 348.712 916.028 345.209C912.555 341.705 907.146 339.954 899.8 339.954C893.656 339.954 888.647 341.301 884.774 343.996C880.9 346.691 877.628 350.127 874.957 354.304L861.934 342.379C865.407 336.45 870.282 331.6 876.559 327.827C882.837 323.919 891.051 321.966 901.202 321.966C914.692 321.966 925.043 325.132 932.256 331.465C939.469 337.798 943.075 346.893 943.075 358.75V411.502H954.094V429.49H941.873ZM897.796 415.14C904.608 415.14 910.218 413.657 914.625 410.693C919.033 407.594 921.237 403.484 921.237 398.364V383.206H902.805C887.712 383.206 880.166 387.922 880.166 397.354V400.992C880.166 405.708 881.702 409.278 884.774 411.704C887.979 413.994 892.32 415.14 897.796 415.14Z" fill="white"/>
<path d="M997.735 429.49C990.256 429.49 984.646 427.603 980.906 423.83C977.3 419.923 975.497 414.533 975.497 407.661V279.926H997.335V411.502H1011.76V429.49H997.735Z" fill="white"/>
<path d="M1094.97 324.391H1116.01L1072.13 450.307C1070.93 453.811 1069.53 456.775 1067.93 459.2C1066.46 461.76 1064.65 463.781 1062.52 465.264C1060.51 466.88 1058.04 468.026 1055.1 468.699C1052.17 469.508 1048.69 469.912 1044.69 469.912H1032.06V451.924H1049.69L1055.7 434.138L1017.84 324.391H1039.68L1060.51 386.237L1066.52 409.076H1067.53L1074.14 386.237L1094.97 324.391Z" fill="white"/>
<path d="M1162.83 429.49C1155.21 429.49 1149.47 427.536 1145.6 423.628C1141.72 419.586 1139.79 413.927 1139.79 406.651V342.379H1123.56V324.391H1132.37C1135.98 324.391 1138.45 323.582 1139.79 321.966C1141.25 320.349 1141.99 317.721 1141.99 314.083V295.691H1161.62V324.391H1183.46V342.379H1161.62V411.502H1181.86V429.49H1162.83Z" fill="white"/>
<path d="M1218.17 305.594C1213.63 305.594 1210.29 304.517 1208.15 302.361C1206.15 300.205 1205.15 297.443 1205.15 294.074V290.638C1205.15 287.27 1206.15 284.507 1208.15 282.351C1210.29 280.196 1213.63 279.118 1218.17 279.118C1222.71 279.118 1225.98 280.196 1227.99 282.351C1229.99 284.507 1230.99 287.27 1230.99 290.638V294.074C1230.99 297.443 1229.99 300.205 1227.99 302.361C1225.98 304.517 1222.71 305.594 1218.17 305.594ZM1207.15 324.391H1228.99V429.49H1207.15V324.391Z" fill="white"/>
<path d="M1300.44 431.915C1292.96 431.915 1286.28 430.635 1280.41 428.075C1274.53 425.515 1269.59 421.877 1265.58 417.161C1261.57 412.31 1258.5 406.516 1256.36 399.779C1254.23 392.907 1253.16 385.294 1253.16 376.94C1253.16 368.586 1254.23 361.041 1256.36 354.304C1258.5 347.432 1261.57 341.638 1265.58 336.922C1269.59 332.071 1274.53 328.366 1280.41 325.806C1286.28 323.246 1292.96 321.966 1300.44 321.966C1310.86 321.966 1319.41 324.324 1326.09 329.04C1332.76 333.756 1337.64 340.021 1340.71 347.836L1322.68 356.325C1321.21 351.474 1318.61 347.634 1314.87 344.804C1311.26 341.84 1306.45 340.358 1300.44 340.358C1292.43 340.358 1286.35 342.918 1282.21 348.038C1278.2 353.024 1276.2 359.559 1276.2 367.643V386.44C1276.2 394.524 1278.2 401.126 1282.21 406.247C1286.35 411.232 1292.43 413.725 1300.44 413.725C1306.85 413.725 1311.93 412.175 1315.67 409.076C1319.54 405.842 1322.61 401.598 1324.88 396.343L1341.51 405.236C1338.04 413.86 1332.83 420.462 1325.88 425.043C1318.94 429.624 1310.46 431.915 1300.44 431.915Z" fill="white"/>
<path d="M1395.36 431.915C1385.47 431.915 1377.19 430.163 1370.52 426.66C1363.84 423.157 1358.03 418.306 1353.09 412.108L1367.11 399.173C1370.98 403.889 1375.26 407.594 1379.93 410.289C1384.74 412.849 1390.28 414.129 1396.56 414.129C1402.97 414.129 1407.71 412.916 1410.79 410.491C1413.99 407.931 1415.59 404.428 1415.59 399.981C1415.59 396.613 1414.46 393.783 1412.19 391.492C1410.05 389.067 1406.24 387.518 1400.77 386.844L1391.15 385.631C1380.47 384.284 1372.05 381.185 1365.91 376.334C1359.9 371.348 1356.89 364.005 1356.89 354.304C1356.89 349.183 1357.83 344.67 1359.7 340.762C1361.57 336.72 1364.17 333.351 1367.51 330.656C1370.98 327.827 1375.06 325.671 1379.73 324.189C1384.54 322.707 1389.82 321.966 1395.56 321.966C1404.91 321.966 1412.52 323.448 1418.4 326.412C1424.41 329.376 1429.75 333.486 1434.43 338.741L1421 351.676C1418.33 348.442 1414.79 345.68 1410.38 343.39C1406.11 340.964 1401.17 339.752 1395.56 339.752C1389.55 339.752 1385.07 340.964 1382.14 343.39C1379.33 345.815 1377.93 348.981 1377.93 352.889C1377.93 356.931 1379.2 359.963 1381.73 361.984C1384.27 364.005 1388.35 365.487 1393.96 366.43L1403.57 367.643C1415.06 369.395 1423.41 372.831 1428.62 377.951C1433.96 382.936 1436.63 389.673 1436.63 398.162C1436.63 403.282 1435.63 407.931 1433.62 412.108C1431.76 416.15 1429.02 419.653 1425.41 422.618C1421.8 425.582 1417.46 427.873 1412.39 429.49C1407.31 431.106 1401.64 431.915 1395.36 431.915Z" fill="white"/>
<path d="M250.316 504.887C388.538 504.887 500.589 391.865 500.589 252.444C500.589 113.024 388.538 0.00158691 250.316 0.00158691C112.094 0.00158691 0.043129 113.024 0.043129 252.444C0.043129 391.865 112.094 504.887 250.316 504.887Z" fill="#F06040"/>
<path d="M396.289 47.4172C356.087 18.2877 308.225 1.8369 258.754 0.145024C209.283 -1.54685 160.426 11.5962 118.361 37.9122C76.2952 64.2282 42.9109 102.535 22.4295 147.989C1.94812 193.443 -4.7106 244.002 3.29541 293.273C11.3014 342.544 33.6126 388.314 67.4075 424.795C101.202 461.275 144.963 486.829 193.156 498.223C241.349 509.618 291.81 506.342 338.157 488.81C384.504 471.277 424.656 440.276 453.535 399.726C472.711 372.802 486.441 342.332 493.941 310.055C501.442 277.778 502.567 244.328 497.251 211.613C491.935 178.898 480.283 147.559 462.96 119.387C445.637 91.2138 422.982 66.7586 396.289 47.4172V47.4172Z" fill="#F1603F"/>
<path d="M43.5712 394.842C43.5712 394.842 208.954 340.193 500.434 244.316C500.434 244.316 516.399 401.328 355.045 483.227C355.045 483.227 275.477 521.697 188.184 497.019C188.184 497.019 101.261 480.468 43.5712 394.842Z" fill="#2B286C"/>
</svg>
