<svg width="1440" height="915" viewBox="0 0 1440 915" fill="none" xmlns="http://www.w3.org/2000/svg">
<g clip-path="url(#clip0_201_49)">
<path d="M18.4435 706.552H70.336C79.7201 706.552 88.1937 708.1 95.757 711.197C103.46 714.294 109.973 718.939 115.296 725.133C120.758 731.186 124.96 738.858 127.901 748.149C130.842 757.299 132.313 767.997 132.313 780.244C132.313 792.491 130.842 803.26 127.901 812.551C124.96 821.701 120.758 829.373 115.296 835.567C109.973 841.62 103.46 846.195 95.757 849.292C88.1937 852.389 79.7201 853.937 70.336 853.937H18.4435V706.552ZM70.336 832.822C81.2607 832.822 90.0846 829.373 96.8075 822.475C103.53 815.577 106.892 805.442 106.892 792.069V768.42C106.892 755.047 103.53 744.911 96.8075 738.014C90.0846 731.116 81.2607 727.667 70.336 727.667H42.1838V832.822H70.336Z" fill="white"/>
<path d="M226.353 835.778H225.513C224.533 838.452 223.202 841.057 221.521 843.591C219.981 846.124 217.95 848.377 215.429 850.347C213.048 852.177 210.106 853.656 206.605 854.782C203.243 855.908 199.322 856.471 194.84 856.471C183.495 856.471 174.671 852.811 168.368 845.491C162.205 838.171 159.124 827.684 159.124 814.029V744.137H182.024V811.073C182.024 828.106 189.027 836.622 203.033 836.622C205.974 836.622 208.846 836.271 211.647 835.567C214.448 834.722 216.899 833.526 219 831.977C221.241 830.429 222.992 828.458 224.252 826.065C225.653 823.672 226.353 820.856 226.353 817.619V744.137H249.253V853.937H226.353V835.778Z" fill="white"/>
<path d="M282.044 853.937V744.137H304.944V762.296H305.994C308.375 756.384 311.947 751.457 316.709 747.516C321.611 743.574 328.264 741.603 336.668 741.603C347.872 741.603 356.556 745.334 362.719 752.794C369.022 760.114 372.173 770.602 372.173 784.256V853.937H349.273V787.212C349.273 770.039 342.41 761.452 328.684 761.452C325.743 761.452 322.802 761.874 319.86 762.719C317.059 763.422 314.538 764.549 312.297 766.097C310.056 767.646 308.235 769.616 306.835 772.009C305.574 774.402 304.944 777.218 304.944 780.456V853.937H282.044Z" fill="white"/>
<path d="M446.772 856.471C438.928 856.471 431.925 855.134 425.763 852.459C419.6 849.784 414.348 845.984 410.006 841.057C405.664 835.989 402.303 829.936 399.922 822.897C397.681 815.718 396.56 807.765 396.56 799.037C396.56 790.309 397.681 782.426 399.922 775.388C402.303 768.209 405.664 762.156 410.006 757.229C414.348 752.161 419.6 748.29 425.763 745.615C431.925 742.941 438.928 741.603 446.772 741.603C454.755 741.603 461.758 743.011 467.781 745.826C473.944 748.642 479.056 752.583 483.118 757.651C487.179 762.578 490.191 768.349 492.152 774.966C494.252 781.582 495.303 788.691 495.303 796.292V804.949H420.3V808.539C420.3 816.985 422.751 823.953 427.654 829.443C432.696 834.792 439.839 837.467 449.083 837.467C455.806 837.467 461.478 835.989 466.1 833.033C470.722 830.077 474.644 826.065 477.865 820.997L491.311 834.3C487.249 841.057 481.367 846.476 473.664 850.559C465.96 854.5 456.996 856.471 446.772 856.471ZM446.772 759.551C442.85 759.551 439.209 760.255 435.847 761.663C432.626 763.071 429.824 765.041 427.443 767.575C425.202 770.109 423.452 773.136 422.191 776.655C420.931 780.174 420.3 784.045 420.3 788.268V789.746H471.142V787.635C471.142 779.189 468.971 772.432 464.63 767.364C460.288 762.156 454.335 759.551 446.772 759.551Z" fill="white"/>
<path d="M663.584 853.937L650.349 814.029H595.515L582.699 853.937H558.539L608.54 706.552H638.373L688.375 853.937H663.584ZM623.457 728.512H622.406L601.187 793.547H644.466L623.457 728.512Z" fill="white"/>
<path d="M709.407 853.937V744.137H732.307V762.296H733.358C735.739 756.384 739.31 751.457 744.072 747.516C748.974 743.574 755.627 741.603 764.031 741.603C775.236 741.603 783.919 745.334 790.082 752.794C796.385 760.114 799.536 770.602 799.536 784.256V853.937H776.636V787.212C776.636 770.039 769.773 761.452 756.047 761.452C753.106 761.452 750.165 761.874 747.224 762.719C744.422 763.422 741.901 764.549 739.66 766.097C737.419 767.646 735.599 769.616 734.198 772.009C732.937 774.402 732.307 777.218 732.307 780.456V853.937H709.407Z" fill="white"/>
<path d="M911.321 853.937C905.299 853.937 900.677 852.248 897.455 848.869C894.234 845.35 892.273 840.916 891.573 835.567H890.522C888.421 842.464 884.57 847.673 878.967 851.192C873.365 854.711 866.572 856.471 858.588 856.471C847.243 856.471 838.49 853.515 832.327 847.602C826.304 841.69 823.293 833.737 823.293 823.742C823.293 812.762 827.215 804.527 835.058 799.037C843.042 793.547 854.667 790.802 869.933 790.802H889.682V781.511C889.682 774.754 887.861 769.546 884.219 765.886C880.578 762.226 874.905 760.396 867.202 760.396C860.759 760.396 855.507 761.804 851.445 764.619C847.383 767.434 843.952 771.024 841.151 775.388L827.495 762.93C831.136 756.736 836.249 751.668 842.832 747.727C849.414 743.644 858.028 741.603 868.673 741.603C882.819 741.603 893.674 744.911 901.237 751.527C908.8 758.144 912.582 767.646 912.582 780.033V835.144H924.137V853.937H911.321ZM865.101 838.945C872.244 838.945 878.127 837.397 882.749 834.3C887.371 831.062 889.682 826.769 889.682 821.419V805.583H870.353C854.527 805.583 846.613 810.51 846.613 820.364V824.164C846.613 829.091 848.224 832.822 851.445 835.356C854.807 837.749 859.359 838.945 865.101 838.945Z" fill="white"/>
<path d="M969.901 853.937C962.057 853.937 956.175 851.966 952.253 848.025C948.471 843.942 946.58 838.312 946.58 831.132V697.683H969.48V835.144H984.607V853.937H969.901Z" fill="white"/>
<path d="M1071.87 744.137H1093.93L1047.92 875.686C1046.66 879.346 1045.19 882.443 1043.5 884.977C1041.96 887.651 1040.07 889.763 1037.83 891.311C1035.73 893 1033.14 894.197 1030.06 894.901C1026.98 895.745 1023.34 896.168 1019.13 896.168H1005.9V877.375H1024.39L1030.69 858.794L990.982 744.137H1013.88L1035.73 808.75L1042.03 832.611H1043.08L1050.02 808.75L1071.87 744.137Z" fill="white"/>
<path d="M1143.02 853.937C1135.04 853.937 1129.01 851.896 1124.95 847.814C1120.89 843.591 1118.86 837.678 1118.86 830.077V762.93H1101.84V744.137H1111.09C1114.87 744.137 1117.46 743.293 1118.86 741.603C1120.4 739.914 1121.17 737.169 1121.17 733.368V714.153H1141.76V744.137H1164.66V762.93H1141.76V835.144H1162.98V853.937H1143.02Z" fill="white"/>
<path d="M1201.05 724.5C1196.29 724.5 1192.79 723.374 1190.55 721.121C1188.45 718.869 1187.4 715.983 1187.4 712.464V708.874C1187.4 705.355 1188.45 702.469 1190.55 700.217C1192.79 697.965 1196.29 696.839 1201.05 696.839C1205.82 696.839 1209.25 697.965 1211.35 700.217C1213.45 702.469 1214.5 705.355 1214.5 708.874V712.464C1214.5 715.983 1213.45 718.869 1211.35 721.121C1209.25 723.374 1205.82 724.5 1201.05 724.5ZM1189.5 744.137H1212.4V853.937H1189.5V744.137Z" fill="white"/>
<path d="M1287.33 856.471C1279.48 856.471 1272.48 855.134 1266.32 852.459C1260.16 849.784 1254.97 845.984 1250.77 841.057C1246.57 835.989 1243.35 829.936 1241.11 822.897C1238.87 815.718 1237.75 807.765 1237.75 799.037C1237.75 790.309 1238.87 782.426 1241.11 775.388C1243.35 768.209 1246.57 762.156 1250.77 757.229C1254.97 752.161 1260.16 748.29 1266.32 745.615C1272.48 742.941 1279.48 741.603 1287.33 741.603C1298.25 741.603 1307.22 744.067 1314.22 748.994C1321.22 753.921 1326.33 760.466 1329.56 768.631L1310.65 777.499C1309.11 772.432 1306.38 768.42 1302.45 765.464C1298.67 762.367 1293.63 760.818 1287.33 760.818C1278.92 760.818 1272.55 763.493 1268.21 768.842C1264.01 774.051 1261.91 780.878 1261.91 789.324V808.961C1261.91 817.407 1264.01 824.305 1268.21 829.654C1272.55 834.863 1278.92 837.467 1287.33 837.467C1294.05 837.467 1299.37 835.848 1303.29 832.611C1307.36 829.232 1310.58 824.798 1312.96 819.308L1330.4 828.599C1326.75 837.608 1321.29 844.506 1314.01 849.292C1306.73 854.078 1297.83 856.471 1287.33 856.471Z" fill="white"/>
<path d="M1386.86 856.471C1376.5 856.471 1367.81 854.641 1360.81 850.981C1353.81 847.321 1347.71 842.253 1342.53 835.778L1357.24 822.264C1361.3 827.191 1365.78 831.062 1370.68 833.877C1375.73 836.552 1381.54 837.889 1388.12 837.889C1394.84 837.889 1399.82 836.622 1403.04 834.089C1406.4 831.414 1408.08 827.754 1408.08 823.109C1408.08 819.589 1406.89 816.633 1404.51 814.24C1402.27 811.706 1398.28 810.087 1392.53 809.384L1382.45 808.117C1371.24 806.709 1362.42 803.471 1355.98 798.404C1349.67 793.195 1346.52 785.523 1346.52 775.388C1346.52 770.039 1347.5 765.323 1349.46 761.241C1351.43 757.017 1354.16 753.498 1357.66 750.683C1361.3 747.727 1365.57 745.474 1370.47 743.926C1375.52 742.378 1381.05 741.603 1387.07 741.603C1396.88 741.603 1404.86 743.152 1411.02 746.249C1417.32 749.346 1422.93 753.639 1427.83 759.129L1413.75 772.643C1410.95 769.264 1407.24 766.379 1402.62 763.986C1398.14 761.452 1392.95 760.185 1387.07 760.185C1380.77 760.185 1376.08 761.452 1373 763.986C1370.05 766.519 1368.58 769.827 1368.58 773.91C1368.58 778.133 1369.91 781.3 1372.57 783.412C1375.24 785.523 1379.51 787.072 1385.39 788.057L1395.47 789.324C1407.52 791.154 1416.27 794.744 1421.74 800.093C1427.34 805.301 1430.14 812.34 1430.14 821.208C1430.14 826.557 1429.09 831.414 1426.99 835.778C1425.03 840.001 1422.16 843.661 1418.37 846.758C1414.59 849.855 1410.04 852.248 1404.72 853.937C1399.4 855.626 1393.44 856.471 1386.86 856.471Z" fill="white"/>
<path d="M719.873 599.53C885.452 599.53 1019.68 465.321 1019.68 299.765C1019.68 134.21 885.452 0.000862122 719.873 0.000862122C554.295 0.000862122 420.067 134.21 420.067 299.765C420.067 465.321 554.295 599.53 719.873 599.53Z" fill="#F06040"/>
<path d="M894.722 56.3058C846.564 21.7159 789.229 2.18123 729.967 0.172209C670.705 -1.83681 612.178 13.77 561.787 45.0191C511.397 76.2681 471.405 121.756 446.87 175.73C422.335 229.705 414.359 289.741 423.949 348.249C433.54 406.756 460.267 461.105 500.75 504.425C541.234 547.744 593.655 578.088 651.386 591.618C709.118 605.149 769.565 601.259 825.085 580.44C880.605 559.621 928.704 522.808 963.299 474.657C986.269 442.686 1002.72 406.504 1011.7 368.177C1020.69 329.85 1022.03 290.128 1015.67 251.281C1009.3 212.433 995.34 175.22 974.589 141.766C953.837 108.312 926.699 79.2729 894.722 56.3058V56.3058Z" fill="#F1603F"/>
<path d="M472.196 468.859C472.196 468.859 670.311 403.966 1019.48 290.115C1019.48 290.115 1038.61 476.561 845.316 573.812C845.316 573.812 750 619.493 645.43 590.19C645.43 590.19 541.304 570.536 472.196 468.859Z" fill="#2B286C"/>
</g>
<defs>
<clipPath id="clip0_201_49">
<rect width="1440" height="915" fill="white"/>
</clipPath>
</defs>
</svg>
