<svg width="40" height="61" viewBox="0 0 40 61" fill="none" xmlns="http://www.w3.org/2000/svg">
<path d="M19.9916 39.9687C31.0302 39.9687 39.9787 31.0214 39.9787 19.9844C39.9787 8.94734 31.0302 6.10352e-05 19.9916 6.10352e-05C8.95304 6.10352e-05 0.0045166 8.94734 0.0045166 19.9844C0.0045166 31.0214 8.95304 39.9687 19.9916 39.9687Z" fill="#F06040"/>
<path d="M31.6482 3.75372C28.4376 1.44772 24.6153 0.145416 20.6645 0.0114806C16.7137 -0.122454 12.8119 0.918 9.45252 3.00127C6.09314 5.08454 3.42704 8.11706 1.79137 11.7154C0.155701 15.3136 -0.376072 19.3161 0.263297 23.2166C0.902666 27.117 2.68446 30.7404 5.38336 33.6283C8.08226 36.5163 11.577 38.5392 15.4258 39.4412C19.2745 40.3433 23.3044 40.0839 27.0057 38.696C30.707 37.3081 33.9136 34.8539 36.22 31.6438C37.7513 29.5124 38.8478 27.1002 39.4468 24.5451C40.0459 21.99 40.1357 19.3419 39.7111 16.752C39.2866 14.1622 38.3561 11.6813 36.9726 9.45108C35.5892 7.22082 33.7799 5.28486 31.6482 3.75372V3.75372Z" fill="#E55231"/>
<path d="M3.47974 31.2572C3.47974 31.2572 16.6874 26.931 39.9653 19.341C39.9653 19.341 41.2403 31.7707 28.3544 38.2541C28.3544 38.2541 22 41.2996 15.0287 39.346C15.0287 39.346 8.08692 38.0357 3.47974 31.2572Z" fill="#2B286C"/>
<path d="M4.31995 47.228H7.77795C8.40328 47.228 8.96795 47.3307 9.47195 47.536C9.98528 47.7413 10.4193 48.0493 10.7739 48.46C11.1379 48.8613 11.4179 49.37 11.6139 49.986C11.8099 50.5927 11.9079 51.302 11.9079 52.114C11.9079 52.926 11.8099 53.64 11.6139 54.256C11.4179 54.8627 11.1379 55.3713 10.7739 55.782C10.4193 56.1833 9.98528 56.4867 9.47195 56.692C8.96795 56.8973 8.40328 57 7.77795 57H4.31995V47.228ZM7.77795 55.6C8.50595 55.6 9.09395 55.3713 9.54195 54.914C9.98995 54.4567 10.2139 53.7847 10.2139 52.898V51.33C10.2139 50.4433 9.98995 49.7713 9.54195 49.314C9.09395 48.8567 8.50595 48.628 7.77795 48.628H5.90195V55.6H7.77795Z" fill="white"/>
<path d="M18.0346 55.796H17.9786C17.9133 55.9733 17.8246 56.146 17.7126 56.314C17.6099 56.482 17.4746 56.6313 17.3066 56.762C17.1479 56.8833 16.9519 56.9813 16.7186 57.056C16.4946 57.1307 16.2333 57.168 15.9346 57.168C15.1786 57.168 14.5906 56.9253 14.1706 56.44C13.7599 55.9547 13.5546 55.2593 13.5546 54.354V49.72H15.0806V54.158C15.0806 55.2873 15.5473 55.852 16.4806 55.852C16.6766 55.852 16.8679 55.8287 17.0546 55.782C17.2413 55.726 17.4046 55.6467 17.5446 55.544C17.6939 55.4413 17.8106 55.3107 17.8946 55.152C17.9879 54.9933 18.0346 54.8067 18.0346 54.592V49.72H19.5606V57H18.0346V55.796Z" fill="white"/>
<path d="M21.6057 57V49.72H23.1317V50.924H23.2017C23.3603 50.532 23.5983 50.2053 23.9157 49.944C24.2423 49.6827 24.6857 49.552 25.2457 49.552C25.9923 49.552 26.571 49.7993 26.9817 50.294C27.4017 50.7793 27.6117 51.4747 27.6117 52.38V57H26.0857V52.576C26.0857 51.4373 25.6283 50.868 24.7137 50.868C24.5177 50.868 24.3217 50.896 24.1257 50.952C23.939 50.9987 23.771 51.0733 23.6217 51.176C23.4723 51.2787 23.351 51.4093 23.2577 51.568C23.1737 51.7267 23.1317 51.9133 23.1317 52.128V57H21.6057Z" fill="white"/>
<path d="M32.4428 57.168C31.9201 57.168 31.4534 57.0793 31.0428 56.902C30.6321 56.7247 30.2821 56.4727 29.9928 56.146C29.7034 55.81 29.4794 55.4087 29.3208 54.942C29.1714 54.466 29.0968 53.9387 29.0968 53.36C29.0968 52.7813 29.1714 52.2587 29.3208 51.792C29.4794 51.316 29.7034 50.9147 29.9928 50.588C30.2821 50.252 30.6321 49.9953 31.0428 49.818C31.4534 49.6407 31.9201 49.552 32.4428 49.552C32.9748 49.552 33.4414 49.6453 33.8428 49.832C34.2534 50.0187 34.5941 50.28 34.8648 50.616C35.1354 50.9427 35.3361 51.3253 35.4668 51.764C35.6068 52.2027 35.6768 52.674 35.6768 53.178V53.752H30.6788V53.99C30.6788 54.55 30.8421 55.012 31.1688 55.376C31.5048 55.7307 31.9808 55.908 32.5968 55.908C33.0448 55.908 33.4228 55.81 33.7308 55.614C34.0388 55.418 34.3001 55.152 34.5148 54.816L35.4108 55.698C35.1401 56.146 34.7481 56.5053 34.2348 56.776C33.7214 57.0373 33.1241 57.168 32.4428 57.168ZM32.4428 50.742C32.1814 50.742 31.9388 50.7887 31.7148 50.882C31.5001 50.9753 31.3134 51.106 31.1548 51.274C31.0054 51.442 30.8888 51.6427 30.8048 51.876C30.7208 52.1093 30.6788 52.366 30.6788 52.646V52.744H34.0668V52.604C34.0668 52.044 33.9221 51.596 33.6328 51.26C33.3434 50.9147 32.9468 50.742 32.4428 50.742Z" fill="white"/>
</svg>
