<svg width="1440" height="244" viewBox="0 0 1440 244" fill="none" xmlns="http://www.w3.org/2000/svg">
<path d="M337.812 69.2822H379.025C386.38 69.2822 393.033 70.4721 398.982 72.8518C405.04 75.2315 410.178 78.8011 414.396 83.5605C418.723 88.2118 422.022 94.107 424.294 101.246C426.673 108.277 427.863 116.498 427.863 125.909C427.863 135.319 426.673 143.594 424.294 150.733C422.022 157.764 418.723 163.66 414.396 168.419C410.178 173.07 405.04 176.586 398.982 178.966C393.033 181.345 386.38 182.535 379.025 182.535H337.812V69.2822ZM379.025 163.551C387.029 163.551 393.357 161.226 398.009 156.575C402.768 151.815 405.148 144.568 405.148 134.833V116.985C405.148 107.25 402.768 100.056 398.009 95.405C393.357 90.6456 387.029 88.2659 379.025 88.2659H359.23V163.551H379.025Z" fill="#2D2D2D"/>
<path d="M499.004 168.419H498.193C497.435 170.582 496.408 172.638 495.11 174.585C493.92 176.424 492.351 178.1 490.404 179.615C488.565 181.129 486.294 182.319 483.59 183.184C480.994 184.05 477.965 184.482 474.504 184.482C465.742 184.482 459.035 181.616 454.384 175.883C449.733 170.15 447.407 161.983 447.407 151.382V97.8388H468.176V149.273C468.176 155.114 469.311 159.603 471.583 162.74C473.855 165.769 477.478 167.283 482.454 167.283C484.509 167.283 486.51 167.013 488.457 166.472C490.513 165.931 492.297 165.12 493.812 164.038C495.326 162.848 496.57 161.442 497.544 159.82C498.517 158.089 499.004 156.088 499.004 153.816V97.8388H519.772V182.535H499.004V168.419Z" fill="#2D2D2D"/>
<path d="M543.768 182.535V97.8388H564.537V111.955H565.348C567.078 107.412 569.783 103.626 573.46 100.597C577.246 97.4602 582.438 95.8918 589.037 95.8918C597.798 95.8918 604.505 98.7583 609.156 104.491C613.808 110.224 616.133 118.391 616.133 128.991V182.535H595.365V131.101C595.365 125.043 594.283 120.5 592.12 117.471C589.956 114.443 586.387 112.928 581.411 112.928C579.247 112.928 577.138 113.253 575.083 113.902C573.136 114.443 571.351 115.308 569.729 116.498C568.214 117.58 566.97 118.986 565.997 120.717C565.023 122.339 564.537 124.286 564.537 126.558V182.535H543.768Z" fill="#2D2D2D"/>
<path d="M673.391 184.482C667.117 184.482 661.492 183.455 656.517 181.399C651.649 179.236 647.484 176.261 644.023 172.475C640.67 168.581 638.074 163.93 636.235 158.522C634.396 153.005 633.477 146.839 633.477 140.025C633.477 133.318 634.342 127.261 636.073 121.852C637.911 116.444 640.508 111.847 643.861 108.061C647.214 104.167 651.324 101.192 656.192 99.1369C661.06 96.9735 666.576 95.8918 672.742 95.8918C679.34 95.8918 685.073 97.0276 689.941 99.2991C694.808 101.571 698.811 104.653 701.948 108.548C705.084 112.442 707.41 116.985 708.924 122.177C710.547 127.261 711.358 132.723 711.358 138.564V145.379H655.056V147.488C655.056 153.654 656.787 158.63 660.248 162.416C663.71 166.093 668.848 167.932 675.662 167.932C680.855 167.932 685.073 166.851 688.318 164.687C691.671 162.524 694.646 159.766 697.242 156.412L708.438 168.906C704.976 173.773 700.217 177.613 694.159 180.426C688.21 183.13 681.287 184.482 673.391 184.482ZM673.066 111.468C667.55 111.468 663.169 113.307 659.924 116.985C656.679 120.662 655.056 125.422 655.056 131.263V132.561H689.779V131.101C689.779 125.26 688.318 120.554 685.398 116.985C682.585 113.307 678.475 111.468 673.066 111.468Z" fill="#2D2D2D"/>
<path d="M840.665 182.535L830.444 151.869H788.095L778.198 182.535H759.539L798.155 69.2822H821.195L859.811 182.535H840.665ZM809.675 86.1566H808.864L792.476 136.131H825.9L809.675 86.1566Z" fill="#2D2D2D"/>
<path d="M876.055 182.535V98.1633H893.74V112.117H894.551C896.39 107.574 899.149 103.788 902.826 100.759C906.612 97.7307 911.75 96.2163 918.24 96.2163C926.894 96.2163 933.6 99.0828 938.36 104.816C943.227 110.441 945.661 118.499 945.661 128.991V182.535H927.976V131.263C927.976 118.066 922.675 111.468 912.075 111.468C909.803 111.468 907.532 111.793 905.26 112.442C903.097 112.982 901.15 113.848 899.419 115.038C897.688 116.228 896.282 117.742 895.2 119.581C894.227 121.42 893.74 123.583 893.74 126.071V182.535H876.055Z" fill="#2D2D2D"/>
<path d="M1031.99 182.535C1027.34 182.535 1023.77 181.237 1021.28 178.641C1018.8 175.937 1017.28 172.53 1016.74 168.419H1015.93C1014.31 173.719 1011.33 177.722 1007.01 180.426C1002.68 183.13 997.433 184.482 991.267 184.482C982.506 184.482 975.745 182.211 970.985 177.668C966.334 173.124 964.009 167.013 964.009 159.333C964.009 150.896 967.037 144.568 973.095 140.349C979.26 136.131 988.239 134.021 1000.03 134.021H1015.28V126.882C1015.28 121.69 1013.87 117.688 1011.06 114.875C1008.25 112.063 1003.87 110.657 997.92 110.657C992.944 110.657 988.887 111.739 985.751 113.902C982.614 116.065 979.964 118.824 977.8 122.177L967.254 112.604C970.066 107.844 974.014 103.95 979.098 100.922C984.182 97.7847 990.835 96.2163 999.055 96.2163C1009.98 96.2163 1018.36 98.7583 1024.2 103.842C1030.05 108.926 1032.97 116.228 1032.97 125.746V168.095H1041.89V182.535H1031.99ZM996.297 171.015C1001.81 171.015 1006.36 169.825 1009.93 167.446C1013.5 164.958 1015.28 161.659 1015.28 157.548V145.379H1000.35C988.13 145.379 982.019 149.165 982.019 156.737V159.657C982.019 163.443 983.263 166.31 985.751 168.257C988.347 170.096 991.862 171.015 996.297 171.015Z" fill="#2D2D2D"/>
<path d="M1077.23 182.535C1071.18 182.535 1066.63 181.021 1063.6 177.992C1060.68 174.855 1059.22 170.528 1059.22 165.012V62.4676H1076.91V168.095H1088.59V182.535H1077.23Z" fill="#2D2D2D"/>
<path d="M1155.98 98.1633H1173.02L1137.49 199.247C1136.51 202.06 1135.38 204.439 1134.08 206.386C1132.89 208.442 1131.43 210.064 1129.7 211.254C1128.07 212.552 1126.07 213.471 1123.69 214.012C1121.31 214.661 1118.5 214.986 1115.26 214.986H1105.03V200.545H1119.31L1124.18 186.267L1093.51 98.1633H1111.2L1128.07 147.813L1132.94 166.148H1133.75L1139.11 147.813L1155.98 98.1633Z" fill="#2D2D2D"/>
<path d="M1210.93 182.535C1204.77 182.535 1200.12 180.967 1196.98 177.83C1193.84 174.585 1192.27 170.042 1192.27 164.201V112.604H1179.13V98.1633H1186.27C1189.19 98.1633 1191.19 97.5143 1192.27 96.2163C1193.46 94.9183 1194.06 92.809 1194.06 89.8884V75.1233H1209.96V98.1633H1227.65V112.604H1209.96V168.095H1226.35V182.535H1210.93Z" fill="#2D2D2D"/>
<path d="M1255.75 83.0737C1252.08 83.0737 1249.37 82.2084 1247.64 80.4777C1246.02 78.747 1245.21 76.5295 1245.21 73.8253V71.067C1245.21 68.3628 1246.02 66.1453 1247.64 64.4146C1249.37 62.6839 1252.08 61.8185 1255.75 61.8185C1259.43 61.8185 1262.08 62.6839 1263.7 64.4146C1265.33 66.1453 1266.14 68.3628 1266.14 71.067V73.8253C1266.14 76.5295 1265.33 78.747 1263.7 80.4777C1262.08 82.2084 1259.43 83.0737 1255.75 83.0737ZM1246.83 98.1633H1264.51V182.535H1246.83V98.1633Z" fill="#2D2D2D"/>
<path d="M1322.38 184.482C1316.32 184.482 1310.92 183.455 1306.16 181.399C1301.4 179.344 1297.4 176.424 1294.15 172.638C1290.91 168.744 1288.42 164.092 1286.69 158.684C1284.96 153.167 1284.09 147.056 1284.09 140.349C1284.09 133.643 1284.96 127.585 1286.69 122.177C1288.42 116.66 1290.91 112.009 1294.15 108.223C1297.4 104.329 1301.4 101.354 1306.16 99.2991C1310.92 97.2439 1316.32 96.2163 1322.38 96.2163C1330.82 96.2163 1337.74 98.1092 1343.15 101.895C1348.56 105.681 1352.51 110.711 1355 116.985L1340.39 123.799C1339.2 119.905 1337.09 116.822 1334.06 114.551C1331.14 112.171 1327.25 110.981 1322.38 110.981C1315.89 110.981 1310.97 113.037 1307.62 117.147C1304.37 121.149 1302.75 126.395 1302.75 132.886V147.975C1302.75 154.465 1304.37 159.766 1307.62 163.876C1310.97 167.878 1315.89 169.879 1322.38 169.879C1327.57 169.879 1331.68 168.635 1334.71 166.148C1337.85 163.551 1340.34 160.144 1342.18 155.926L1355.64 163.065C1352.83 169.988 1348.61 175.288 1342.99 178.966C1337.36 182.643 1330.5 184.482 1322.38 184.482Z" fill="#2D2D2D"/>
<path d="M1399.25 184.482C1391.25 184.482 1384.54 183.076 1379.13 180.264C1373.72 177.451 1369.02 173.557 1365.02 168.581L1376.37 158.197C1379.51 161.983 1382.97 164.958 1386.76 167.121C1390.65 169.176 1395.14 170.204 1400.23 170.204C1405.42 170.204 1409.26 169.23 1411.75 167.283C1414.34 165.228 1415.64 162.416 1415.64 158.846C1415.64 156.142 1414.72 153.87 1412.88 152.031C1411.15 150.084 1408.07 148.841 1403.63 148.3L1395.85 147.326C1387.19 146.244 1380.38 143.757 1375.4 139.862C1370.53 135.86 1368.1 129.965 1368.1 122.177C1368.1 118.066 1368.86 114.443 1370.37 111.306C1371.89 108.061 1374 105.357 1376.7 103.193C1379.51 100.922 1382.81 99.1909 1386.6 98.0011C1390.49 96.8112 1394.76 96.2163 1399.41 96.2163C1406.99 96.2163 1413.15 97.4061 1417.91 99.7859C1422.78 102.166 1427.11 105.465 1430.89 109.683L1420.02 120.068C1417.86 117.471 1414.99 115.254 1411.42 113.415C1407.96 111.468 1403.96 110.495 1399.41 110.495C1394.55 110.495 1390.92 111.468 1388.54 113.415C1386.27 115.362 1385.14 117.904 1385.14 121.041C1385.14 124.286 1386.16 126.72 1388.22 128.342C1390.27 129.965 1393.57 131.155 1398.12 131.912L1405.9 132.886C1415.21 134.292 1421.97 137.05 1426.19 141.161C1430.51 145.163 1432.68 150.571 1432.68 157.386C1432.68 161.496 1431.87 165.228 1430.24 168.581C1428.73 171.826 1426.51 174.639 1423.59 177.019C1420.67 179.398 1417.15 181.237 1413.04 182.535C1408.93 183.833 1404.34 184.482 1399.25 184.482Z" fill="#2D2D2D"/>
<path d="M121.283 243.19C188.259 243.19 242.553 188.75 242.553 121.595C242.553 54.4402 188.259 0.000457764 121.283 0.000457764C54.3076 0.000457764 0.0131836 54.4402 0.0131836 121.595C0.0131836 188.75 54.3076 243.19 121.283 243.19Z" fill="#F06040"/>
<path d="M192.022 22.8395C172.542 8.80869 149.35 0.884782 125.379 0.0698539C101.408 -0.745074 77.7345 5.58558 57.3517 18.2613C36.9689 30.9369 20.7925 49.3883 10.8682 71.2822C0.943963 93.176 -2.28252 117.529 1.59679 141.261C5.47611 164.994 16.287 187.04 32.6623 204.612C49.0377 222.184 70.242 234.492 93.594 239.98C116.946 245.469 141.397 243.891 163.854 235.446C186.312 227.001 205.767 212.069 219.761 192.537C229.052 179.568 235.705 164.892 239.34 149.345C242.974 133.798 243.519 117.686 240.943 101.928C238.367 86.1701 232.721 71.0752 224.328 57.5052C215.934 43.9351 204.956 32.1558 192.022 22.8395V22.8395Z" fill="#F1603F"/>
<path d="M21.1113 190.184C21.1113 190.184 101.248 163.862 242.484 117.68C242.484 117.68 250.22 193.309 172.036 232.757C172.036 232.757 133.481 251.287 91.1836 239.4C91.1836 239.4 49.065 231.428 21.1113 190.184Z" fill="#2B286C"/>
</svg>
