<svg width="1440" height="915" viewBox="0 0 1440 915" fill="none" xmlns="http://www.w3.org/2000/svg">
<g clip-path="url(#clip0)">
<path d="M18.4424 706.552H70.3349C79.719 706.552 88.1927 708.1 95.756 711.197C103.459 714.294 109.972 718.939 115.294 725.133C120.757 731.186 124.959 738.858 127.9 748.149C130.841 757.299 132.312 767.997 132.312 780.244C132.312 792.491 130.841 803.26 127.9 812.551C124.959 821.701 120.757 829.373 115.294 835.567C109.972 841.62 103.459 846.195 95.756 849.292C88.1927 852.389 79.719 853.937 70.3349 853.937H18.4424V706.552ZM70.3349 832.822C81.2597 832.822 90.0835 829.373 96.8064 822.475C103.529 815.577 106.891 805.442 106.891 792.069V768.42C106.891 755.047 103.529 744.911 96.8064 738.014C90.0835 731.116 81.2597 727.667 70.3349 727.667H42.1827V832.822H70.3349Z" fill="#2D2D2D"/>
<path d="M226.352 835.778H225.512C224.531 838.452 223.201 841.057 221.52 843.59C219.98 846.124 217.949 848.377 215.428 850.347C213.046 852.177 210.105 853.655 206.604 854.782C203.242 855.908 199.321 856.471 194.839 856.471C183.494 856.471 174.67 852.811 168.367 845.491C162.204 838.171 159.123 827.684 159.123 814.029V744.137H182.023V811.073C182.023 828.106 189.026 836.622 203.032 836.622C205.973 836.622 208.845 836.27 211.646 835.567C214.447 834.722 216.898 833.525 218.999 831.977C221.24 830.429 222.991 828.458 224.251 826.065C225.652 823.672 226.352 820.856 226.352 817.619V744.137H249.252V853.937H226.352V835.778Z" fill="#2D2D2D"/>
<path d="M282.043 853.937V744.137H304.943V762.296H305.993C308.374 756.384 311.946 751.457 316.708 747.516C321.61 743.574 328.263 741.603 336.667 741.603C347.871 741.603 356.555 745.334 362.718 752.794C369.021 760.114 372.172 770.602 372.172 784.256V853.937H349.272V787.212C349.272 770.039 342.409 761.452 328.683 761.452C325.742 761.452 322.801 761.874 319.859 762.719C317.058 763.422 314.537 764.549 312.296 766.097C310.055 767.645 308.234 769.616 306.834 772.009C305.573 774.402 304.943 777.218 304.943 780.455V853.937H282.043Z" fill="#2D2D2D"/>
<path d="M446.771 856.471C438.927 856.471 431.924 855.134 425.762 852.459C419.599 849.784 414.347 845.984 410.005 841.057C405.663 835.989 402.301 829.936 399.92 822.897C397.679 815.718 396.559 807.765 396.559 799.037C396.559 790.309 397.679 782.426 399.92 775.388C402.301 768.209 405.663 762.156 410.005 757.229C414.347 752.161 419.599 748.29 425.762 745.615C431.924 742.941 438.927 741.603 446.771 741.603C454.754 741.603 461.757 743.011 467.78 745.826C473.943 748.642 479.055 752.583 483.117 757.651C487.178 762.578 490.19 768.349 492.15 774.966C494.251 781.582 495.302 788.69 495.302 796.292V804.949H420.299V808.539C420.299 816.985 422.75 823.953 427.652 829.443C432.695 834.792 439.838 837.467 449.082 837.467C455.805 837.467 461.477 835.989 466.099 833.033C470.721 830.077 474.643 826.065 477.864 820.997L491.31 834.3C487.248 841.057 481.366 846.476 473.662 850.559C465.959 854.5 456.995 856.471 446.771 856.471ZM446.771 759.551C442.849 759.551 439.207 760.255 435.846 761.663C432.625 763.071 429.823 765.041 427.442 767.575C425.201 770.109 423.451 773.135 422.19 776.655C420.93 780.174 420.299 784.045 420.299 788.268V789.746H471.141V787.635C471.141 779.189 468.97 772.432 464.629 767.364C460.287 762.156 454.334 759.551 446.771 759.551Z" fill="#2D2D2D"/>
<path d="M663.583 853.937L650.347 814.029H595.514L582.698 853.937H558.538L608.539 706.552H638.372L688.374 853.937H663.583ZM623.456 728.512H622.405L601.186 793.547H644.465L623.456 728.512Z" fill="#2D2D2D"/>
<path d="M709.406 853.937V744.137H732.306V762.296H733.356C735.738 756.384 739.309 751.457 744.071 747.516C748.973 743.574 755.626 741.603 764.03 741.603C775.235 741.603 783.918 745.334 790.081 752.794C796.384 760.114 799.535 770.602 799.535 784.256V853.937H776.635V787.212C776.635 770.039 769.772 761.452 756.046 761.452C753.105 761.452 750.164 761.874 747.223 762.719C744.421 763.422 741.9 764.549 739.659 766.097C737.418 767.645 735.597 769.616 734.197 772.009C732.936 774.402 732.306 777.218 732.306 780.455V853.937H709.406Z" fill="#2D2D2D"/>
<path d="M911.32 853.937C905.298 853.937 900.676 852.248 897.454 848.869C894.233 845.35 892.272 840.916 891.572 835.567H890.521C888.42 842.464 884.569 847.673 878.966 851.192C873.364 854.711 866.571 856.471 858.587 856.471C847.242 856.471 838.489 853.515 832.326 847.602C826.303 841.69 823.292 833.737 823.292 823.742C823.292 812.762 827.214 804.527 835.057 799.037C843.041 793.547 854.666 790.802 869.932 790.802H889.681V781.511C889.681 774.754 887.86 769.546 884.218 765.886C880.577 762.226 874.904 760.396 867.201 760.396C860.758 760.396 855.506 761.804 851.444 764.619C847.382 767.434 843.951 771.024 841.15 775.388L827.494 762.93C831.135 756.736 836.248 751.668 842.83 747.727C849.413 743.644 858.027 741.603 868.672 741.603C882.818 741.603 893.672 744.911 901.236 751.527C908.799 758.144 912.581 767.645 912.581 780.033V835.144H924.136V853.937H911.32ZM865.1 838.945C872.243 838.945 878.126 837.397 882.748 834.3C887.37 831.062 889.681 826.769 889.681 821.419V805.583H870.352C854.525 805.583 846.612 810.51 846.612 820.364V824.164C846.612 829.091 848.223 832.822 851.444 835.355C854.806 837.749 859.358 838.945 865.1 838.945Z" fill="#2D2D2D"/>
<path d="M969.9 853.937C962.056 853.937 956.173 851.966 952.252 848.025C948.47 843.942 946.579 838.312 946.579 831.132V697.683H969.479V835.144H984.606V853.937H969.9Z" fill="#2D2D2D"/>
<path d="M1071.87 744.137H1093.93L1047.92 875.686C1046.65 879.346 1045.18 882.443 1043.5 884.977C1041.96 887.651 1040.07 889.763 1037.83 891.311C1035.73 893 1033.14 894.197 1030.06 894.901C1026.98 895.745 1023.33 896.168 1019.13 896.168H1005.9V877.375H1024.39L1030.69 858.794L990.981 744.137H1013.88L1035.73 808.75L1042.03 832.61H1043.08L1050.02 808.75L1071.87 744.137Z" fill="#2D2D2D"/>
<path d="M1143.02 853.937C1135.03 853.937 1129.01 851.896 1124.95 847.814C1120.89 843.59 1118.86 837.678 1118.86 830.077V762.93H1101.84V744.137H1111.08C1114.87 744.137 1117.46 743.292 1118.86 741.603C1120.4 739.914 1121.17 737.169 1121.17 733.368V714.153H1141.76V744.137H1164.66V762.93H1141.76V835.144H1162.98V853.937H1143.02Z" fill="#2D2D2D"/>
<path d="M1201.05 724.5C1196.29 724.5 1192.79 723.374 1190.55 721.121C1188.45 718.869 1187.4 715.983 1187.4 712.464V708.874C1187.4 705.355 1188.45 702.469 1190.55 700.217C1192.79 697.965 1196.29 696.839 1201.05 696.839C1205.81 696.839 1209.25 697.965 1211.35 700.217C1213.45 702.469 1214.5 705.355 1214.5 708.874V712.464C1214.5 715.983 1213.45 718.869 1211.35 721.121C1209.25 723.374 1205.81 724.5 1201.05 724.5ZM1189.5 744.137H1212.4V853.937H1189.5V744.137Z" fill="#2D2D2D"/>
<path d="M1287.33 856.471C1279.48 856.471 1272.48 855.134 1266.32 852.459C1260.15 849.784 1254.97 845.984 1250.77 841.057C1246.57 835.989 1243.35 829.936 1241.11 822.897C1238.86 815.718 1237.74 807.765 1237.74 799.037C1237.74 790.309 1238.86 782.426 1241.11 775.388C1243.35 768.209 1246.57 762.156 1250.77 757.229C1254.97 752.161 1260.15 748.29 1266.32 745.615C1272.48 742.941 1279.48 741.603 1287.33 741.603C1298.25 741.603 1307.21 744.067 1314.22 748.994C1321.22 753.921 1326.33 760.466 1329.55 768.631L1310.65 777.499C1309.11 772.432 1306.37 768.42 1302.45 765.464C1298.67 762.367 1293.63 760.818 1287.33 760.818C1278.92 760.818 1272.55 763.493 1268.21 768.842C1264.01 774.05 1261.91 780.878 1261.91 789.324V808.961C1261.91 817.407 1264.01 824.305 1268.21 829.654C1272.55 834.863 1278.92 837.467 1287.33 837.467C1294.05 837.467 1299.37 835.848 1303.29 832.61C1307.35 829.232 1310.58 824.798 1312.96 819.308L1330.39 828.599C1326.75 837.608 1321.29 844.505 1314.01 849.292C1306.72 854.078 1297.83 856.471 1287.33 856.471Z" fill="#2D2D2D"/>
<path d="M1386.86 856.471C1376.5 856.471 1367.81 854.641 1360.81 850.981C1353.81 847.321 1347.71 842.253 1342.53 835.778L1357.24 822.264C1361.3 827.191 1365.78 831.062 1370.68 833.877C1375.73 836.552 1381.54 837.889 1388.12 837.889C1394.84 837.889 1399.82 836.622 1403.04 834.089C1406.4 831.414 1408.08 827.754 1408.08 823.109C1408.08 819.589 1406.89 816.633 1404.51 814.24C1402.27 811.706 1398.27 810.087 1392.53 809.384L1382.45 808.117C1371.24 806.709 1362.42 803.471 1355.98 798.404C1349.67 793.195 1346.52 785.523 1346.52 775.388C1346.52 770.039 1347.5 765.323 1349.46 761.241C1351.42 757.017 1354.16 753.498 1357.66 750.683C1361.3 747.727 1365.57 745.474 1370.47 743.926C1375.52 742.377 1381.05 741.603 1387.07 741.603C1396.87 741.603 1404.86 743.152 1411.02 746.249C1417.32 749.346 1422.93 753.639 1427.83 759.129L1413.75 772.643C1410.95 769.264 1407.24 766.379 1402.62 763.985C1398.13 761.452 1392.95 760.185 1387.07 760.185C1380.77 760.185 1376.08 761.452 1372.99 763.985C1370.05 766.519 1368.58 769.827 1368.58 773.91C1368.58 778.133 1369.91 781.3 1372.57 783.412C1375.23 785.523 1379.51 787.072 1385.39 788.057L1395.47 789.324C1407.52 791.154 1416.27 794.744 1421.74 800.093C1427.34 805.301 1430.14 812.34 1430.14 821.208C1430.14 826.557 1429.09 831.414 1426.99 835.778C1425.03 840.001 1422.16 843.661 1418.37 846.758C1414.59 849.855 1410.04 852.248 1404.72 853.937C1399.4 855.626 1393.44 856.471 1386.86 856.471Z" fill="#2D2D2D"/>
<path d="M719.872 599.53C885.45 599.53 1019.68 465.321 1019.68 299.766C1019.68 134.21 885.45 0.000915527 719.872 0.000915527C554.294 0.000915527 420.066 134.21 420.066 299.766C420.066 465.321 554.294 599.53 719.872 599.53Z" fill="#F06040"/>
<path d="M894.721 56.3058C846.563 21.7159 789.228 2.18123 729.966 0.172209C670.704 -1.83681 612.177 13.77 561.786 45.0191C511.395 76.2681 471.404 121.756 446.869 175.73C422.334 229.705 414.357 289.741 423.948 348.249C433.538 406.756 460.265 461.105 500.749 504.425C541.232 547.744 593.654 578.088 651.385 591.618C709.116 605.149 769.564 601.259 825.084 580.44C880.603 559.621 928.702 522.808 963.297 474.657C986.268 442.686 1002.72 406.504 1011.7 368.177C1020.69 329.85 1022.03 290.128 1015.67 251.281C1009.3 212.433 995.339 175.22 974.587 141.766C953.836 108.312 926.697 79.2729 894.721 56.3058V56.3058Z" fill="#F1603F"/>
<path d="M472.196 468.859C472.196 468.859 670.31 403.966 1019.48 290.115C1019.48 290.115 1038.6 476.561 845.316 573.812C845.316 573.812 749.999 619.494 645.43 590.19C645.43 590.19 541.304 570.536 472.196 468.859Z" fill="#2B286C"/>
</g>
<defs>
<clipPath id="clip0">
<rect width="1440" height="915" fill="white"/>
</clipPath>
</defs>
</svg>
